<svg xmlns="http://www.w3.org/2000/svg" width="308.35999603271483" height="73.0631636565784" viewBox="0 0 369.8947368421052 87.64327422917238" class="looka-1j8o68f"><defs id="SvgjsDefs1211"></defs><g id="SvgjsG1212" featurekey="G09qjj-0" transform="matrix(1.023391812865497,0,0,1.023391812865497,-5.116959064327485,-7.347953040697421)" fill="#a393eb"><path xmlns="http://www.w3.org/2000/svg" d="M6.5,45.96c-0.829,0-1.5,0.671-1.5,1.5v5.079c0,0.829,0.671,1.5,1.5,1.5S8,53.368,8,52.54V47.46  C8,46.632,7.329,45.96,6.5,45.96z"></path><path xmlns="http://www.w3.org/2000/svg" d="M12.3,41.522c-0.829,0-1.5,0.671-1.5,1.5v13.955c0,0.829,0.671,1.5,1.5,1.5s1.5-0.671,1.5-1.5V43.022  C13.8,42.194,13.128,41.522,12.3,41.522z"></path><path xmlns="http://www.w3.org/2000/svg" d="M18.1,44.622c-0.829,0-1.5,0.671-1.5,1.5v7.756c0,0.829,0.671,1.5,1.5,1.5s1.5-0.671,1.5-1.5v-7.756  C19.6,45.293,18.929,44.622,18.1,44.622z"></path><path xmlns="http://www.w3.org/2000/svg" d="M23.9,34.843c-0.829,0-1.5,0.671-1.5,1.5v27.313c0,0.829,0.671,1.5,1.5,1.5s1.5-0.671,1.5-1.5V36.343  C25.4,35.515,24.729,34.843,23.9,34.843z"></path><path xmlns="http://www.w3.org/2000/svg" d="M29.7,28.604c-0.829,0-1.5,0.671-1.5,1.5v39.791c0,0.829,0.671,1.5,1.5,1.5s1.5-0.671,1.5-1.5V30.104  C31.2,29.276,30.529,28.604,29.7,28.604z"></path><path xmlns="http://www.w3.org/2000/svg" d="M35.5,7.18c-0.829,0-1.5,0.671-1.5,1.5v82.64c0,0.829,0.671,1.5,1.5,1.5s1.5-0.671,1.5-1.5V8.68  C37,7.852,36.329,7.18,35.5,7.18z"></path><path xmlns="http://www.w3.org/2000/svg" d="M41.3,13.768c-0.829,0-1.5,0.671-1.5,1.5v69.465c0,0.829,0.671,1.5,1.5,1.5s1.5-0.671,1.5-1.5V15.268  C42.8,14.439,42.128,13.768,41.3,13.768z"></path><path xmlns="http://www.w3.org/2000/svg" d="M47.1,20.849c-0.829,0-1.5,0.671-1.5,1.5v55.303c0,0.829,0.671,1.5,1.5,1.5s1.5-0.671,1.5-1.5V22.349  C48.6,21.52,47.929,20.849,47.1,20.849z"></path><path xmlns="http://www.w3.org/2000/svg" d="M52.9,30.88c-0.829,0-1.5,0.671-1.5,1.5v35.24c0,0.829,0.671,1.5,1.5,1.5s1.5-0.671,1.5-1.5V32.38  C54.4,31.551,53.729,30.88,52.9,30.88z"></path><path xmlns="http://www.w3.org/2000/svg" d="M58.7,40.744c-0.829,0-1.5,0.671-1.5,1.5v15.512c0,0.829,0.671,1.5,1.5,1.5s1.5-0.671,1.5-1.5V42.244  C60.2,41.416,59.529,40.744,58.7,40.744z"></path><path xmlns="http://www.w3.org/2000/svg" d="M64.5,33.457c-0.829,0-1.5,0.671-1.5,1.5v30.087c0,0.829,0.671,1.5,1.5,1.5s1.5-0.671,1.5-1.5V34.957  C66,34.128,65.329,33.457,64.5,33.457z"></path><path xmlns="http://www.w3.org/2000/svg" d="M70.3,39.529c-0.829,0-1.5,0.671-1.5,1.5v17.942c0,0.829,0.671,1.5,1.5,1.5s1.5-0.671,1.5-1.5V41.029  C71.8,40.2,71.128,39.529,70.3,39.529z"></path><path xmlns="http://www.w3.org/2000/svg" d="M76.1,43.442c-0.829,0-1.5,0.671-1.5,1.5v10.116c0,0.829,0.671,1.5,1.5,1.5s1.5-0.671,1.5-1.5V44.942  C77.6,44.113,76.929,43.442,76.1,43.442z"></path><path xmlns="http://www.w3.org/2000/svg" d="M81.9,41.656c-0.829,0-1.5,0.671-1.5,1.5v13.688c0,0.829,0.671,1.5,1.5,1.5s1.5-0.671,1.5-1.5V43.156  C83.4,42.328,82.729,41.656,81.9,41.656z"></path><path xmlns="http://www.w3.org/2000/svg" d="M87.7,45.96c-0.829,0-1.5,0.671-1.5,1.5v5.079c0,0.829,0.671,1.5,1.5,1.5s1.5-0.671,1.5-1.5V47.46  C89.2,46.632,88.529,45.96,87.7,45.96z"></path><path xmlns="http://www.w3.org/2000/svg" d="M93.5,46.982c-0.829,0-1.5,0.671-1.5,1.5v3.035c0,0.829,0.671,1.5,1.5,1.5s1.5-0.671,1.5-1.5v-3.035  C95,47.654,94.329,46.982,93.5,46.982z"></path></g><g id="SvgjsG1213" featurekey="0yvIkK-0" transform="matrix(3.99960799341946,0,0,3.99960799341946,106.00057990443355,-14.558180555461018)" fill="#f5c7f7"><path d="M6 10.52 q1.02 0 1.75 0.52 t1.03 1.48 q0.4 -0.96 1.26 -1.48 t1.9 -0.52 q3.5 0 3.5 3.92 l0 5.56 l-1.2 0 l0 -5.5 q0 -2.88 -2.32 -2.9 q-1.4 0 -2.1 0.92 t-0.7 2.38 l0 5.1 l-1.2 0 l0 -5.62 q0 -1.26 -0.48 -2.01 t-1.46 -0.77 q-1.44 0 -2.3 1.01 t-0.88 2.81 l0 4.58 l-1.2 0 l0 -6.74 q-0.02 -0.68 -0.1 -2.5 l1.2 0 q0.04 1.48 0.08 1.62 l0.06 0 q0.4 -0.86 1.28 -1.36 t1.88 -0.5 z M22.06 20.24 q-1.76 0 -2.64 -0.99 t-0.88 -3.03 l0 -5.46 l1.2 0 l0 5.4 q0 1.5 0.57 2.25 t1.75 0.75 q1.46 0 2.32 -1 t0.88 -2.82 l0 -4.58 l1.2 0 l0 6.74 q0.04 1.02 0.1 2.5 l-1.2 0 q-0.02 -1.14 -0.08 -1.62 l-0.06 0 q-0.4 0.86 -1.27 1.36 t-1.89 0.5 z M32.28 10.52 q2.34 0 3.24 1.74 l-1.08 0.64 q-0.68 -1.3 -2.16 -1.3 q-0.8 0 -1.39 0.43 t-0.59 1.05 t0.5 0.99 t1.74 0.59 q1.84 0.32 2.54 0.95 t0.7 1.77 q0 1.3 -0.93 2.08 t-2.43 0.78 q-2.64 -0.02 -3.7 -1.88 l1.06 -0.72 q0.34 0.7 1.11 1.11 t1.57 0.41 q0.92 0 1.52 -0.51 t0.6 -1.19 q0 -0.62 -0.49 -1.02 t-2.13 -0.72 q-1.42 -0.28 -2.14 -0.86 t-0.72 -1.68 q0 -1.18 0.9 -1.92 t2.28 -0.74 z M38.48 10.76 l1.2 0 l0 9.24 l-1.2 0 l0 -9.24 z M39.08 6.199999999999999 q0.4 0 0.65 0.26 t0.25 0.64 t-0.25 0.64 t-0.65 0.26 q-0.38 0 -0.64 -0.26 t-0.26 -0.64 t0.26 -0.64 t0.64 -0.26 z M47.419999999999995 10.52 q2 0 3.44 1.6 l-0.96 0.72 q-1.16 -1.24 -2.5 -1.24 q-1.56 0 -2.59 1.06 t-1.05 2.72 q0 1.66 1.04 2.71 t2.6 1.07 q1.48 0 2.5 -1.28 l0.92 0.76 q-1.34 1.58 -3.4 1.6 q-2.1 0 -3.46 -1.36 t-1.4 -3.5 q0 -2.06 1.35 -3.44 t3.51 -1.42 z M56.13999999999999 4.640000000000001 q0.84 0 1.38 0.24 l-0.24 1.04 q-0.4 -0.2 -1.08 -0.2 q-1.62 0 -1.62 2.38 l0 2.66 l2.16 0 l0 1.08 l-2.16 0 l0 8.16 l-1.2 0 l0 -8.16 l-1.92 0 l0 -1.08 l1.92 0 l0 -3.1 q0 -1.36 0.76 -2.18 t2 -0.84 z M58.66 10.76 l3.06 7.78 l2.98 -7.78 l1.28 0 l-4.74 12.06 q-0.78 1.98 -2.56 1.98 q-0.56 0 -1.18 -0.18 l0.12 -1.12 q0.66 0.22 1.08 0.22 q0.46 0 0.82 -0.32 t0.7 -1.16 l0.86 -2.2 l-3.76 -9.28 l1.34 0 z"></path></g></svg>