<svg xmlns="http://www.w3.org/2000/svg" width="24" height="24" viewBox="0 0 24 24" fill="none">
  <!-- Circle Background -->
  <circle cx="12" cy="12" r="10" fill="black" />
  <!-- Inner Arrows -->
  <path d="M8.293 8.293a1 1 0 0 1 1.414 0l3 3a1 1 0 0 1 0 1.414l-3 3a1 1 0 0 1-1.414 0l-.083-.094a1 1 0 0 1 .083-1.32L10.585 12 8.293 9.707a1 1 0 0 1 0-1.414z" fill="#dab6fc" />
  <path d="M12.293 8.293a1 1 0 0 1 1.414 0l3 3a1 1 0 0 1 0 1.414l-3 3a1 1 0 0 1-1.414 0l-.083-.094a1 1 0 0 1 .083-1.32L14.585 12 12.293 9.707a1 1 0 0 1 0-1.414z" fill="#dab6fc" />
</svg>

